# xmcd
#
# Track frame offsets: 
#        150
#        21522
#        39056
#        59787
#        78812
#        98714
#        117426
#        135432
#        153485
#        175415
#        190765
#        209303
#
# Disc length: 2996 seconds
#
# Revision: 0
# Processed by: cddbd v1.5.2PL0 Copyright (c) Steve Scherf et al.
# Submitted via: ExactAudioCopyFreeDBPlugin 1.0
#
DISCID=9c0bb20c
DTITLE=周笔畅 - 时间
DYEAR=2010
DGENRE=Country
TTITLE0=Season
TTITLE1=这句话
TTITLE2=你们的爱
TTITLE3=倒叙的时光
TTITLE4=青睐
TTITLE5=上帝咬过的苹果
TTITLE6=唱一半的歌
TTITLE7=学会感觉
TTITLE8=醒着梦游
TTITLE9=唱响幸福
TTITLE10=娃娃
TTITLE11=不唱
EXTD=
EXTT0=
EXTT1=
EXTT2=
EXTT3=
EXTT4=
EXTT5=
EXTT6=
EXTT7=
EXTT8=
EXTT9=
EXTT10=
EXTT11=
PLAYORDER=
